<?xml version="1.0" encoding="UTF-8" standalone="no"?>
<!-- Created with Inkscape (http://www.inkscape.org/) -->

<svg
   xmlns:dc="http://purl.org/dc/elements/1.1/"
   xmlns:cc="http://creativecommons.org/ns#"
   xmlns:rdf="http://www.w3.org/1999/02/22-rdf-syntax-ns#"
   xmlns:svg="http://www.w3.org/2000/svg"
   xmlns="http://www.w3.org/2000/svg"
   xmlns:xlink="http://www.w3.org/1999/xlink"
   xmlns:sodipodi="http://sodipodi.sourceforge.net/DTD/sodipodi-0.dtd"
   xmlns:inkscape="http://www.inkscape.org/namespaces/inkscape"
   width="1600"
   height="1200"
   id="svg2"
   version="1.1"
   inkscape:version="0.47pre4 r22446"
   sodipodi:docname="1 - Точка, от которой надо искать поляну.svg">
  <defs
     id="defs4">
    <marker
       inkscape:stockid="Arrow1Mend"
       orient="auto"
       refY="0.0"
       refX="0.0"
       id="Arrow1Mend"
       style="overflow:visible;">
      <path
         id="path3784"
         d="M 0.0,0.0 L 5.0,-5.0 L -12.5,0.0 L 5.0,5.0 L 0.0,0.0 z "
         style="fill-rule:evenodd;stroke:#000000;stroke-width:1.0pt;marker-start:none;"
         transform="scale(0.4) rotate(180) translate(10,0)" />
    </marker>
    <marker
       inkscape:stockid="Arrow1Lend"
       orient="auto"
       refY="0.0"
       refX="0.0"
       id="Arrow1Lend"
       style="overflow:visible;">
      <path
         id="path3778"
         d="M 0.0,0.0 L 5.0,-5.0 L -12.5,0.0 L 5.0,5.0 L 0.0,0.0 z "
         style="fill-rule:evenodd;stroke:#000000;stroke-width:1.0pt;marker-start:none;"
         transform="scale(0.8) rotate(180) translate(12.5,0)" />
    </marker>
    <inkscape:perspective
       sodipodi:type="inkscape:persp3d"
       inkscape:vp_x="0 : 526.18109 : 1"
       inkscape:vp_y="0 : 1000 : 0"
       inkscape:vp_z="744.09448 : 526.18109 : 1"
       inkscape:persp3d-origin="372.04724 : 350.78739 : 1"
       id="perspective10" />
    <inkscape:perspective
       sodipodi:type="inkscape:persp3d"
       inkscape:vp_x="0 : 526.18109 : 1"
       inkscape:vp_y="0 : 1000 : 0"
       inkscape:vp_z="744.09448 : 526.18109 : 1"
       inkscape:persp3d-origin="372.04724 : 350.78739 : 1"
       id="perspective3186" />
    <inkscape:perspective
       id="perspective3177"
       inkscape:persp3d-origin="372.04724 : 350.78739 : 1"
       inkscape:vp_z="744.09448 : 526.18109 : 1"
       inkscape:vp_y="0 : 1000 : 0"
       inkscape:vp_x="0 : 526.18109 : 1"
       sodipodi:type="inkscape:persp3d" />
    <marker
       style="overflow:visible"
       id="Arrow1Send"
       refX="0"
       refY="0"
       orient="auto"
       inkscape:stockid="Arrow1Send">
      <path
         transform="matrix(-0.2,0,0,-0.2,-1.2,0)"
         style="fill-rule:evenodd;stroke:#000000;stroke-width:1pt;marker-start:none"
         d="M 0,0 5,-5 -12.5,0 5,5 0,0 z"
         id="path3723" />
    </marker>
    <marker
       style="overflow:visible"
       id="Arrow1Sstart"
       refX="0"
       refY="0"
       orient="auto"
       inkscape:stockid="Arrow1Sstart">
      <path
         transform="matrix(0.2,0,0,0.2,1.2,0)"
         style="fill-rule:evenodd;stroke:#000000;stroke-width:1pt;marker-start:none"
         d="M 0,0 5,-5 -12.5,0 5,5 0,0 z"
         id="path3720" />
    </marker>
    <inkscape:perspective
       id="perspective2946"
       inkscape:persp3d-origin="0.5 : 0.33333333 : 1"
       inkscape:vp_z="1 : 0.5 : 1"
       inkscape:vp_y="0 : 1000 : 0"
       inkscape:vp_x="0 : 0.5 : 1"
       sodipodi:type="inkscape:persp3d" />
    <inkscape:perspective
       id="perspective8315"
       inkscape:persp3d-origin="0.5 : 0.33333333 : 1"
       inkscape:vp_z="1 : 0.5 : 1"
       inkscape:vp_y="0 : 1000 : 0"
       inkscape:vp_x="0 : 0.5 : 1"
       sodipodi:type="inkscape:persp3d" />
  </defs>
  <sodipodi:namedview
     id="base"
     pagecolor="#ffffff"
     bordercolor="#666666"
     borderopacity="1.0"
     inkscape:pageopacity="0.0"
     inkscape:pageshadow="2"
     inkscape:zoom="0.35"
     inkscape:cx="823.28432"
     inkscape:cy="592.70055"
     inkscape:document-units="px"
     inkscape:current-layer="layer1-9"
     showgrid="false"
     inkscape:window-width="1415"
     inkscape:window-height="851"
     inkscape:window-x="25"
     inkscape:window-y="0"
     inkscape:window-maximized="1" />
  <metadata
     id="metadata7">
    <rdf:RDF>
      <cc:Work
         rdf:about="">
        <dc:format>image/svg+xml</dc:format>
        <dc:type
           rdf:resource="http://purl.org/dc/dcmitype/StillImage" />
        <dc:title />
      </cc:Work>
    </rdf:RDF>
  </metadata>
  <g
     inkscape:label="Layer 1"
     inkscape:groupmode="layer"
     id="layer1"
     transform="translate(-702.28576,-457.79074)">
    <g
       transform="translate(-30.000003,170)"
       id="layer1-9"
       inkscape:label="Layer 1">
      <image
         y="287.79074"
         x="732.28577"
         id="image2948"
         height="1200"
         width="1600"
	 xlink:href="file:///mnt/win/1%20-%20%D0%9F%D0%BE%D1%85%D0%BE%D0%B4%D1%8B/2009/2%D0%BA%D0%B0/%D0%9E%D1%82%D1%87%D0%B5%D1%82/%D0%A4%D0%BE%D1%82%D0%BE/%D0%90%D1%80%D1%87%D0%B0%D1%82%D0%BE%D1%80/%D0%90%D1%80%D1%87%D0%B0%D1%82%D0%BE%D1%80.1%20-%20%D0%A2%D0%BE%D1%87%D0%BA%D0%B0,%20%D0%BE%D1%82%20%D0%BA%D0%BE%D1%82%D0%BE%D1%80%D0%BE%D0%B9%20%D0%BD%D0%B0%D0%B4%D0%BE%20%D0%B8%D1%81%D0%BA%D0%B0%D1%82%D1%8C%20%D0%BF%D0%BE%D0%BB%D1%8F%D0%BD%D1%83.JPG" />
      <text
         sodipodi:linespacing="100%"
         id="text5016"
         y="394.93362"
         x="933.71436"
         style="font-size:56px;font-style:normal;font-variant:normal;font-weight:bold;font-stretch:normal;text-indent:0;text-align:start;text-decoration:none;line-height:100%;letter-spacing:normal;word-spacing:normal;text-transform:none;direction:ltr;block-progression:tb;writing-mode:lr-tb;text-anchor:start;fill:#000000;fill-opacity:1;fill-rule:nonzero;stroke:#ffffff;stroke-width:1.5;stroke-miterlimit:4;stroke-opacity:1;stroke-dasharray:none;marker:none;visibility:visible;display:inline;overflow:visible;enable-background:accumulate;font-family:Arial;-inkscape-font-specification:Arial Bold"
         xml:space="preserve"><tspan
           sodipodi:role="line"
           id="tspan2980"
           x="933.71436"
           y="394.93362">Разливы р. Чон-Кызылсу.</tspan><tspan
           sodipodi:role="line"
           id="tspan2982"
           x="933.71436"
           y="450.93362">Вид назад из точки, </tspan><tspan
           sodipodi:role="line"
           id="tspan2984"
           x="933.71436"
           y="506.93362">от которой надо искать тропу</tspan></text>
      <path
         style="fill:none;stroke:#000000;stroke-width:6;stroke-linecap:butt;stroke-linejoin:miter;stroke-opacity:1;stroke-miterlimit:4;stroke-dasharray:12, 24;stroke-dashoffset:0;marker-end:url(#Arrow1Mend)"
         d="m 588.57143,697.14286 c -1.34687,1.34687 -4.01062,-0.85184 -5.71429,0 -1.20467,0.60234 -1.65246,2.2548 -2.85714,2.85714 -1.70367,0.85184 -4.36742,-1.34687 -5.71429,0 -0.67343,0.67344 0.67344,2.18371 0,2.85714 -0.96256,0.96256 -4.75172,-0.96256 -5.71428,0 -0.67344,0.67344 0.67343,2.18371 0,2.85715 -0.58411,0.5841 -7.4386,-0.56642 -8.57143,0 -1.20468,0.60233 -1.65247,2.2548 -2.85714,2.85714 -1.13284,0.56642 -7.98733,-0.58411 -8.57143,0 -0.67344,0.67343 0.67343,2.18371 0,2.85714 -0.67344,0.67344 -2.00531,-0.42592 -2.85714,0 -1.20468,0.60234 -1.65247,2.25481 -2.85715,2.85714 -1.70367,0.85184 -4.36741,-1.34687 -5.71428,0 -0.67344,0.67344 0.67343,2.18371 0,2.85715 -1.34687,1.34687 -4.36742,-1.34687 -5.71429,0 -0.67343,0.67343 0.67344,2.1837 0,2.85714 -1.42857,1.42857 -7.14286,-1.42857 -8.57143,0 -0.67343,0.67344 0.67344,2.18371 0,2.85714 -1.42857,1.42857 -7.14285,-1.42857 -8.57143,0 -0.67343,0.67344 0.67344,2.18371 0,2.85715 -1.34687,1.34687 -4.36741,-1.34687 -5.71428,0 -0.67344,0.67343 0.67343,2.1837 0,2.85714 -0.58411,0.5841 -7.4386,-0.56642 -8.57143,0 -1.20468,0.60234 -1.65247,2.2548 -2.85714,2.85714 -1.70367,0.85184 -4.01062,-0.85183 -5.71429,0 -1.20468,0.60234 -1.65246,2.25481 -2.85714,2.85714 -1.70367,0.85184 -4.36742,-1.34687 -5.71429,0 -0.67343,0.67344 0.67344,2.18371 0,2.85715 -0.67343,0.67343 -2.1837,-0.67344 -2.85714,0 -0.67344,0.67343 0.67344,2.1837 0,2.85714 -0.67344,0.67344 -2.18371,-0.67344 -2.85714,0 -0.67344,0.67344 0.67343,2.18371 0,2.85714 -0.67344,0.67344 -2.18371,-0.67343 -2.85715,0 -0.67343,0.67344 0.67344,2.18371 0,2.85715 -0.67343,0.67343 -2.1837,-0.67344 -2.85714,0 -0.67343,0.67343 0.67344,2.1837 0,2.85714 -0.67343,0.67343 -2.18371,-0.67344 -2.85714,0 -0.67344,0.67343 0.67343,2.18371 0,2.85714 -0.67344,0.67344 -2.43123,-0.85183 -2.85714,0 -0.85184,1.70367 0.85183,4.01062 0,5.71429 -0.42592,0.85183 -2.18371,-0.67344 -2.85715,0 -0.67343,0.67343 0.67344,2.1837 0,2.85714 -0.67343,0.67344 -2.1837,-0.67344 -2.85714,0 -5.91153,5.91153 9.0336,-0.23109 -2.85714,5.71429 -0.85184,0.42591 -2.18371,-0.67344 -2.85715,0 -0.67343,0.67343 0.42592,2.0053 0,2.85714 -0.60233,1.20468 -2.2548,1.65246 -2.85714,2.85714 -0.42592,0.85184 0.67344,2.18371 0,2.85714 -0.67343,0.67344 -2.18371,-0.67343 -2.85714,0 -0.67344,0.67344 0.42592,2.00531 0,2.85715 -0.60234,1.20467 -2.25481,1.65246 -2.85714,2.85714 -0.42592,0.85184 0.67343,2.18371 0,2.85714 -0.67344,0.67344 -2.00531,-0.42591 -2.85715,0 -0.54691,0.27346 -11.15511,10.88166 -11.42857,11.42857 -0.42592,0.85184 0.42592,2.00531 0,2.85715 -1.1295,2.259 -4.58478,3.45528 -5.71428,5.71428 -0.42592,0.85184 0.67343,2.18371 0,2.85715 -0.67344,0.67343 -2.18371,-0.67344 -2.85715,0 -1.50584,1.50584 -2.1837,3.69398 -2.85714,5.71428 -0.30117,0.90351 0.67344,2.18371 0,2.85714 -0.67344,0.67344 -2.18371,-0.67343 -2.85714,0 -0.67344,0.67344 0.67343,2.18371 0,2.85715 -0.67344,0.67343 -2.18371,-0.67344 -2.85715,0 -0.67343,0.67343 0.42592,2.0053 0,2.85714 -1.12875,2.2575 -4.58553,3.45679 -5.71428,5.71429 -0.42592,0.85183 0.67343,2.1837 0,2.85714 -0.67344,0.67343 -2.18371,-0.67344 -2.85714,0 -0.67344,0.67343 0.42591,2.00531 0,2.85714 -1.71429,3.42857 -6.85715,5.14286 -8.57143,8.57143 -0.42592,0.85184 0,1.90476 0,2.85714 -0.95238,0.95238 -2.25481,1.65247 -2.85715,2.85715 -0.42591,0.85183 0.67344,2.1837 0,2.85714 -0.67343,0.67343 -2.1837,-0.67344 -2.85714,0 -0.67343,0.67343 0.67344,2.18371 0,2.85714 -0.67343,0.67344 -2.43122,-0.85183 -2.85714,0 -0.85184,1.70367 0.85183,4.01062 0,5.71429 -0.42592,0.85183 -2.18371,-0.67344 -2.85714,0 -0.67344,0.67343 0.67343,2.1837 0,2.85714 -0.67344,0.67344 -2.18371,-0.67344 -2.85715,0 -0.67343,0.67344 0.67344,2.18371 0,2.85714 -0.67343,0.67344 -2.1837,-0.67343 -2.85714,0 -0.67344,0.67344 0.42592,2.00531 0,2.85715 -1.71429,3.42857 -6.85714,5.14285 -8.57143,8.57142 -0.42592,0.85184 0.42592,2.00531 0,2.85715 -0.76298,1.52595 -7.06724,7.06724 -8.57143,8.57143 -0.95238,0.95238 -1.90476,1.90476 -2.85714,2.85714 -0.95238,0.95238 -1.65247,2.2548 -2.85714,2.85714 -0.85184,0.42592 -2.18371,-0.67343 -2.85715,0 -0.67343,0.67344 0.67344,2.18371 0,2.85714 -0.67343,0.67344 -2.1837,-0.67343 -2.85714,0 -0.67343,0.67344 0.67344,2.18371 0,2.85715 -0.96256,0.96256 -4.75172,-0.96256 -5.71428,0 -0.67344,0.67343 0.42591,2.0053 0,2.85714 -2.63003,5.26004 -5.94141,0.45424 -8.57143,5.71429 -0.42592,0.85183 0.67343,2.1837 0,2.85714 -0.67344,0.67343 -2.00531,-0.42592 -2.85715,0 -2.81151,1.40575 -8.61706,10.02281 -11.42857,11.42857 -0.85183,0.42592 -2.1837,-0.67344 -2.85714,0 -0.67344,0.67344 0.67344,2.18371 0,2.85714 -0.67344,0.67344 -2.00531,-0.42591 -2.85714,0 -2.31238,1.15619 -3.40191,4.5581 -5.71429,5.71429 -0.85183,0.42592 -2.00531,-0.42592 -2.85714,0 -3.42857,1.71428 -5.14286,6.85714 -8.57143,8.57143 -0.85184,0.42591 -2.00531,-0.42592 -2.85714,0 -1.52596,0.76297 -7.06725,7.06724 -8.57143,8.57143 -1.68041,1.68041 -10.76703,10.10549 -11.42857,11.42857 -0.42592,0.85183 0.42591,2.0053 0,2.85714 -0.60234,1.20468 -2.25481,1.65247 -2.85715,2.85714 -0.42591,0.85184 0.67344,2.18371 0,2.85715 -0.67343,0.67343 -2.0053,-0.42592 -2.85714,0 -1.20468,0.60233 -1.65246,2.2548 -2.85714,2.85714 -0.85184,0.42592 -2.00531,-0.42592 -2.85714,0 -3.42858,1.71428 -5.14286,6.85714 -8.57143,8.57143 -0.85184,0.42591 -2.18371,-0.67344 -2.85715,0 -0.67343,0.67343 0.67344,2.1837 0,2.85714 -0.67343,0.67344 -2.1837,-0.67344 -2.85714,0 -5.91153,5.91153 9.0336,-0.23109 -2.85714,5.71429 -0.85184,0.42591 -2.00531,-0.42592 -2.85714,0 -1.20468,0.60233 -1.65247,2.2548 -2.85715,2.85714 -0.85183,0.42592 -2.1837,-0.67344 -2.85714,0 -0.67344,0.67343 0.67344,2.18371 0,2.85714 -0.67344,0.67344 -2.18371,-0.67343 -2.85714,0 -0.67344,0.67344 0.67343,2.18371 0,2.85714 -1.34687,1.34687 -4.36742,-1.34687 -5.71429,0 -0.67343,0.67344 0.67344,2.18371 0,2.85715 -0.67343,0.67343 -2.18371,-0.67344 -2.85714,0 -5.91153,5.91154 9.0336,-0.23109 -2.85714,5.71424 -0.85184,0.426 -2.00531,-0.4259 -2.85715,0 -1.20467,0.6024 -1.65246,2.2548 -2.85714,2.8572 -0.85184,0.4259 -2.18371,-0.6734 -2.85714,0 -0.67344,0.6734 0.67343,2.1837 0,2.8571 -0.67344,0.6735 -2.18371,-0.6734 -2.85715,0 -0.67343,0.6735 0.67344,2.1837 0,2.8572 -0.67343,0.6734 -1.90476,0 -2.85714,0 -1.90476,0 -4.01061,-0.8519 -5.71428,0 -0.85184,0.4259 0.67343,2.1837 0,2.8571 -1.34687,1.3469 -4.36742,-1.3469 -5.71429,0 -0.67344,0.6734 0.67344,2.1837 0,2.8572 -0.67344,0.6734 -1.90476,0 -2.85714,0 -1.90476,0 -4.01062,-0.8519 -5.71429,0 -0.85183,0.4259 0.67344,2.1837 0,2.8571 -1.34687,1.3469 -4.01061,-0.8518 -5.71428,0 -1.20468,0.6023 -1.65247,2.2548 -2.85715,2.8571 -0.85183,0.426 -2.0053,-0.4259 -2.85714,0 -1.20468,0.6024 -1.57939,2.4313 -2.85714,2.8572 -1.80702,0.6023 -3.90727,-0.6024 -5.71429,0 -1.27775,0.4259 -1.65246,2.2548 -2.85714,2.8571 -0.85184,0.4259 -2.00531,-0.4259 -2.85714,0 -1.20468,0.6024 -1.65247,2.2548 -2.85715,2.8572 -1.70367,0.8518 -4.01061,-0.8519 -5.71428,0 -1.20468,0.6023 -1.65247,2.2548 -2.85715,2.8571 -0.85183,0.4259 -1.90476,0 -2.85714,0 -1.90476,0 -3.90727,-0.6023 -5.71428,0 -1.27776,0.4259 -1.65247,2.2548 -2.85715,2.8572 -1.70367,0.8518 -4.01061,-0.8519 -5.71428,0 -1.20468,0.6023 -1.65247,2.2548 -2.85715,2.8571 -1.70367,0.8518 -4.01061,-0.8518 -5.71428,0 -1.20468,0.6023 -1.65247,2.2548 -2.85714,2.8571 -1.70368,0.8519 -4.36742,-1.3468 -5.71429,0 -0.67344,0.6735 0.67344,2.1838 0,2.8572 -0.5841,0.5841 -7.43859,-0.5664 -8.57143,0 -1.20468,0.6023 -1.65246,2.2548 -2.85714,2.8571 -1.70367,0.8519 -4.01062,-0.8518 -5.71429,0 -1.20467,0.6024 -1.65246,2.2548 -2.85714,2.8572 -1.703671,0.8518 -4.367416,-1.3469 -5.714286,0 -0.673435,0.6734 0.851836,2.4312 0,2.8571 -1.703671,0.8518 -3.90727,-0.6023 -5.714285,0 -1.277754,0.4259 -1.652466,2.2548 -2.857143,2.8572 -0.851836,0.4259 -2.005308,-0.426 -2.857143,0 -1.204677,0.6023 -1.652466,2.2548 -2.857143,2.8571 -1.703671,0.8518 -4.010615,-0.8518 -5.714286,0 -1.204677,0.6023 -1.652465,2.2548 -2.857143,2.8571 -1.70367,0.8519 -4.367415,-1.3468 -5.714285,0 -0.673435,0.6735 0.673435,2.1838 0,2.8572 -1.041295,1.0413 -4.672991,-1.0413 -5.714286,0 -0.673435,0.6734 0.673435,2.1837 0,2.8571 -1.428571,1.4286 -7.142857,-1.4285 -8.571429,0 -0.673435,0.6735 0.673435,2.1837 0,2.8572 -0.673435,0.6734 -2.183707,-0.6735 -2.857142,0 -0.673435,0.6734 0.673435,2.1837 0,2.8571 -1.34687,1.3469 -4.010615,-0.8518 -5.714286,0 -1.204677,0.6024 -1.652466,2.2548 -2.857143,2.8572 -0.851835,0.4259 -2.183708,-0.6735 -2.857143,0 -0.673435,0.6734 0.673435,2.1837 0,2.8571 -1.34687,1.3469 -4.010615,-0.8518 -5.714286,0 -1.204677,0.6023 -1.652465,2.2548 -2.857142,2.8571 -1.703671,0.8519 -4.367416,-1.3468 -5.714286,0 -0.673435,0.6735 0.673435,2.1838 0,2.8572 -0.114975,0.115 21.763534,-5.7143 -12.8571434,2.8571"
         id="path4412"
         transform="translate(732.28576,287.79074)"
         sodipodi:nodetypes="cssssssssssssssssssssssssssssssssssssssssssssssssssssssssssssssssssssscssssssssssssssssssssssssssssssssssssssssssssssssssssssssssssssssssssssssssssssssssssssssssssssssssssssssssssssssssssssc" />
      <text
         sodipodi:linespacing="100%"
         id="text5016-4"
         y="1448.9349"
         x="1971.6027"
         style="font-size:56px;font-style:normal;font-variant:normal;font-weight:bold;font-stretch:normal;text-indent:0;text-align:start;text-decoration:none;line-height:100%;letter-spacing:normal;word-spacing:normal;text-transform:none;direction:ltr;block-progression:tb;writing-mode:lr-tb;text-anchor:start;fill:#000000;fill-opacity:1;fill-rule:nonzero;stroke:#ffffff;stroke-width:1.5;stroke-miterlimit:4;stroke-opacity:1;stroke-dasharray:none;marker:none;visibility:visible;display:inline;overflow:visible;enable-background:accumulate;font-family:Arial;-inkscape-font-specification:Arial Bold"
         xml:space="preserve"><tspan
           sodipodi:role="line"
           x="1971.6027"
           y="1448.9349"
           id="tspan8343">август 2009</tspan></text>
    </g>
  </g>
</svg>
